<?xml version="1.0" encoding="utf-8"?>
<!-- Generator: Adobe Illustrator 16.0.0, SVG Export Plug-In . SVG Version: 6.00 Build 0)  -->
<!DOCTYPE svg PUBLIC "-//W3C//DTD SVG 1.1//EN" "http://www.w3.org/Graphics/SVG/1.1/DTD/svg11.dtd">
<svg version="1.1" id="Layer_1" xmlns="http://www.w3.org/2000/svg" xmlns:xlink="http://www.w3.org/1999/xlink" x="0px" y="0px"
	 width="77.864px" height="77.864px" viewBox="0 0 77.864 77.864" enable-background="new 0 0 77.864 77.864" xml:space="preserve">
<path d="M77.864,38.932c0,21.501-17.431,38.932-38.932,38.932C17.43,77.864,0,60.433,0,38.932C0,17.43,17.43,0,38.932,0
	C60.433,0,77.864,17.43,77.864,38.932z M8.52,52.229c0,4.843,2.342,9.633,10.564,9.633c6.653,0,10.831-4.045,10.831-10.484
	c0-3.912-1.597-7.212-4.524-11.018l-8.01-9.687c-1.33-1.756-2.155-3.113-2.155-5.695c0-2.395,1.277-3.965,3.858-3.965
	c3.114,0,4.418,2.688,4.418,7.478v2.156h5.322c0.372-1.97,0.745-3.486,0.745-5.429c0-4.604-2.368-9.634-10.405-9.634
	c-6.626,0-10.458,4.258-10.458,10.299c0,3.752,1.463,6.999,3.991,10.245l7.186,8.542c2.528,3.221,3.193,4.924,3.193,7.744
	c0,2.741-1.438,4.231-4.045,4.231c-3.354,0-4.471-2.688-4.471-7.584v-2.209H9.211C8.759,48.743,8.52,50.286,8.52,52.229z
	 M35.713,61.436h6.44V46.401c0-9.234-0.426-17.298-0.719-20.491h0.506l6.92,29.672h4.363L60.09,25.91h0.504
	c-0.291,3.193-0.717,11.257-0.717,20.491v15.035h6.439V15.984h-8.809l-4.498,17.59c-0.932,3.886-1.383,7.478-1.861,10.565h-0.213
	c-0.48-3.088-0.932-6.68-1.863-10.565l-4.365-17.59h-8.995V61.436z"/>
</svg>
